<svg version="1.1" xmlns="http://www.w3.org/2000/svg" x="0" y="0" viewBox="0 0 295 37.15" xml:space="preserve">
  <path d="M16.96 14.44V8.32h.72v20.96c0 2.59-.75 4.55-2.26 5.88-1.51 1.33-3.63 2-6.38 2-2.53 0-4.44-.52-5.72-1.56-1.28-1.04-2.07-2.2-2.36-3.48h.72c.29 1.09 1.01 2.09 2.16 3 1.15.91 2.88 1.36 5.2 1.36 2.56 0 4.52-.6 5.88-1.8 1.36-1.2 2.04-2.99 2.04-5.36v-6.56c-.51 2-1.49 3.61-2.94 4.84s-3.19 1.84-5.22 1.84c-2.75 0-4.89-1.01-6.44-3.04C.79 24.37 0 21.73 0 18.48c0-3.2.79-5.79 2.36-7.76C3.91 8.8 6.03 7.84 8.72 7.84c2.08 0 3.85.61 5.32 1.84 1.46 1.23 2.44 2.81 2.92 4.76zM8.8 28.76c2.48 0 4.45-.93 5.92-2.8 1.49-1.87 2.24-4.31 2.24-7.32 0-3.12-.75-5.59-2.24-7.4-1.49-1.81-3.48-2.72-5.96-2.72s-4.44.89-5.88 2.68C1.44 12.99.72 15.41.72 18.48c0 3.09.72 5.57 2.16 7.44 1.44 1.89 3.41 2.84 5.92 2.84zM23.12 28.96h-.72V.48h.72v28.48zM46.15 28.32h.64v.64h-.48c-1.57 0-2.68-.36-3.32-1.08-.64-.72-.96-1.96-.96-3.72l-.04-.56c-.56 1.89-1.57 3.34-3.04 4.34s-3.27 1.5-5.4 1.5c-2.27 0-4.01-.53-5.22-1.58s-1.82-2.45-1.82-4.18c0-3.31 2.12-5.24 6.36-5.8l5.08-.72c1.57-.24 2.64-.65 3.2-1.22s.84-1.42.84-2.54v-.08c0-1.47-.57-2.63-1.72-3.5-1.15-.87-2.84-1.3-5.08-1.3-2.27 0-3.94.43-5.02 1.3-1.08.87-1.75 2.21-2.02 4.02h-.72c.24-1.97.98-3.47 2.22-4.48 1.24-1.01 3.1-1.52 5.58-1.52 2.45 0 4.31.49 5.58 1.48 1.27.99 1.9 2.33 1.9 4.04v10.76c0 1.52.25 2.6.76 3.24.51.64 1.4.96 2.68.96zm-12.56.48c4.8 0 7.6-2.43 8.4-7.28v-5.64c-.61 1.01-1.92 1.65-3.92 1.92l-5.12.72c-3.81.56-5.72 2.27-5.72 5.12 0 1.57.54 2.83 1.62 3.76 1.08.93 2.66 1.4 4.74 1.4zM68.63 7.84c2.03 0 3.58.63 4.66 1.9s1.62 3.09 1.62 5.46v13.76h-.72V15.2c0-4.45-1.95-6.68-5.84-6.68-1.89 0-3.45.76-4.66 2.28-1.21 1.52-1.82 3.67-1.82 6.44v11.72h-.72V15.2c0-4.45-1.96-6.68-5.88-6.68-1.89 0-3.43.76-4.62 2.28-1.19 1.52-1.78 3.67-1.78 6.44v11.72h-.72V8.32h.72l-.04 4.52.04.2v.36c.48-1.76 1.29-3.13 2.44-4.1 1.15-.97 2.56-1.46 4.24-1.46 1.79 0 3.22.51 4.3 1.52 1.08 1.01 1.73 2.45 1.94 4.32.45-1.84 1.27-3.27 2.46-4.3 1.18-1.03 2.64-1.54 4.38-1.54zM94.34 26.48c-1.73 1.97-4 2.96-6.8 2.96-2.77 0-5.03-.99-6.76-2.96-1.71-1.95-2.56-4.56-2.56-7.84 0-3.31.85-5.93 2.56-7.88 1.71-1.95 3.97-2.92 6.8-2.92 2.8 0 5.05.97 6.76 2.92s2.56 4.57 2.56 7.88c0 3.28-.85 5.89-2.56 7.84zm-6.8 2.28c2.64 0 4.74-.91 6.3-2.72 1.56-1.81 2.34-4.28 2.34-7.4s-.78-5.59-2.34-7.4c-1.56-1.81-3.66-2.72-6.3-2.72-2.59 0-4.67.91-6.24 2.72-1.57 1.81-2.36 4.28-2.36 7.4s.79 5.59 2.36 7.4c1.58 1.81 3.66 2.72 6.24 2.72zM108.38 7.8c.61 0 1.28.07 2 .2v.72c-.72-.13-1.4-.2-2.04-.2-2.29 0-4.11.75-5.44 2.24-1.33 1.49-2 3.68-2 6.56v11.64h-.72V8.32h.68v5.24c.48-1.87 1.37-3.29 2.68-4.28 1.31-.99 2.92-1.48 4.84-1.48zM127.06 26.48c-1.73 1.97-4 2.96-6.8 2.96-2.77 0-5.03-.99-6.76-2.96-1.71-1.95-2.56-4.56-2.56-7.84 0-3.31.85-5.93 2.56-7.88 1.71-1.95 3.97-2.92 6.8-2.92 2.8 0 5.05.97 6.76 2.92s2.56 4.57 2.56 7.88c0 3.28-.86 5.89-2.56 7.84zm-6.8 2.28c2.64 0 4.74-.91 6.3-2.72 1.56-1.81 2.34-4.28 2.34-7.4s-.78-5.59-2.34-7.4c-1.56-1.81-3.66-2.72-6.3-2.72-2.59 0-4.67.91-6.24 2.72-1.57 1.81-2.36 4.28-2.36 7.4s.79 5.59 2.36 7.4c1.57 1.81 3.65 2.72 6.24 2.72zM147.93 19.48V8.32h.72v20.64h-.68v-5.52c-1.15 4-3.77 6-7.88 6-2.32 0-4.1-.67-5.34-2-1.24-1.33-1.86-3.24-1.86-5.72V8.32h.72v13.36c0 2.27.56 4.01 1.68 5.24 1.12 1.23 2.75 1.84 4.88 1.84 2.4 0 4.29-.79 5.68-2.36 1.39-1.58 2.08-3.88 2.08-6.92zM160.45 29.44c-2.53 0-4.51-.58-5.94-1.74-1.43-1.16-2.19-2.79-2.3-4.9h.72c.11 1.92.81 3.39 2.1 4.42 1.29 1.03 3.1 1.54 5.42 1.54 2.24 0 3.98-.45 5.22-1.34 1.24-.89 1.86-2.17 1.86-3.82 0-2.61-1.77-4.17-5.32-4.68l-3.2-.48c-2.11-.35-3.67-.9-4.7-1.66-1.03-.76-1.54-1.87-1.54-3.34 0-1.68.65-3.01 1.96-3.98 1.31-.97 3.08-1.46 5.32-1.46s4.05.53 5.42 1.6 2.13 2.52 2.26 4.36h-.72c-.13-1.65-.81-2.95-2.04-3.9-1.23-.95-2.87-1.42-4.92-1.42-2 0-3.6.42-4.8 1.26-1.2.84-1.8 2.01-1.8 3.5 0 1.31.47 2.29 1.4 2.96.93.67 2.36 1.13 4.28 1.4l3.2.48c3.92.56 5.88 2.35 5.88 5.36 0 1.81-.69 3.24-2.08 4.28-1.39 1.04-3.28 1.56-5.68 1.56z"/>
  <path d="M184.82 24.24v4.72c-.4.13-.98.25-1.74.36-.76.11-1.53.16-2.3.16-1.57 0-2.83-.17-3.76-.5-.93-.33-1.63-.91-2.08-1.72-.45-.81-.68-1.95-.68-3.42V11.88h-3.28V7.76h3.28V1.88h6.36v5.88h4.32v4.12h-4.32v10.6c0 .77.17 1.3.5 1.58.33.28.89.42 1.66.42.83 0 1.51-.08 2.04-.24zM203.6 8.6c1.67.91 2.95 2.19 3.84 3.86.89 1.67 1.34 3.63 1.34 5.9 0 3.44-.99 6.15-2.96 8.14-1.97 1.99-4.69 2.98-8.16 2.98-3.47 0-6.19-.99-8.16-2.98-1.97-1.99-2.96-4.7-2.96-8.14s.99-6.15 2.96-8.14c1.97-1.99 4.69-2.98 8.16-2.98 2.29 0 4.27.45 5.94 1.36zm-2.52 14.6c.81-1.07 1.22-2.68 1.22-4.84 0-2.13-.41-3.74-1.22-4.82s-1.95-1.62-3.42-1.62-2.61.54-3.42 1.62-1.22 2.69-1.22 4.82c0 2.16.41 3.77 1.22 4.84.81 1.07 1.95 1.6 3.42 1.6 1.46 0 2.6-.54 3.42-1.6zM228.11 8.6c1.67.91 2.95 2.19 3.84 3.86.89 1.67 1.34 3.63 1.34 5.9 0 3.44-.99 6.15-2.96 8.14-1.97 1.99-4.69 2.98-8.16 2.98-3.47 0-6.19-.99-8.16-2.98-1.97-1.99-2.96-4.7-2.96-8.14s.99-6.15 2.96-8.14c1.97-1.99 4.69-2.98 8.16-2.98 2.3 0 4.28.45 5.94 1.36zm-2.52 14.6c.81-1.07 1.22-2.68 1.22-4.84 0-2.13-.41-3.74-1.22-4.82s-1.95-1.62-3.42-1.62-2.61.54-3.42 1.62-1.22 2.69-1.22 4.82c0 2.16.41 3.77 1.22 4.84.81 1.07 1.95 1.6 3.42 1.6s2.61-.54 3.42-1.6zM243.17 0v28.96h-6.36V0h6.36zM254.29 28.96h-6.36V0h6.36v15.84l7.2-8.08h7.12l-7.76 8.16 8.64 13.04h-7.32l-5.56-8.8-2.32 2.44v6.36zM278.24 0v4.96h-6.36V0h6.36zm0 7.76v21.2h-6.36V7.76h6.36zM294.88 24.24v4.72c-.4.13-.98.25-1.74.36-.76.11-1.53.16-2.3.16-1.57 0-2.83-.17-3.76-.5-.93-.33-1.63-.91-2.08-1.72-.45-.81-.68-1.95-.68-3.42V11.88h-3.28V7.76h3.28V1.88h6.36v5.88H295v4.12h-4.32v10.6c0 .77.17 1.3.5 1.58.33.28.89.42 1.66.42.83 0 1.51-.08 2.04-.24z"/>
</svg>