<svg version="1.1" xmlns="http://www.w3.org/2000/svg" x="0" y="0" viewBox="0 0 354.29 90.16" xml:space="preserve">
  <path d="M87.06 58.78v11.45c-.97.32-2.38.61-4.22.87-1.84.26-3.7.39-5.58.39-3.82 0-6.85-.4-9.12-1.21-2.26-.81-3.94-2.2-5.04-4.17-1.1-1.97-1.65-4.74-1.65-8.29v-29H53.5v-9.99h7.95V4.56h15.42v14.26h10.48v9.99H76.88v25.71c0 1.88.4 3.15 1.21 3.83.81.68 2.15 1.02 4.03 1.02 2-.01 3.65-.2 4.94-.59zM132.6 20.85c4.04 2.2 7.15 5.32 9.31 9.36 2.17 4.04 3.25 8.81 3.25 14.31 0 8.34-2.39 14.92-7.18 19.74-4.79 4.82-11.38 7.23-19.79 7.23-8.41 0-15-2.41-19.79-7.23-4.79-4.82-7.18-11.4-7.18-19.74s2.39-14.92 7.18-19.74c4.78-4.82 11.38-7.23 19.79-7.23 5.57.01 10.37 1.11 14.41 3.3zm-6.11 35.41c1.97-2.59 2.96-6.5 2.96-11.74 0-5.17-.99-9.07-2.96-11.69-1.97-2.62-4.74-3.93-8.29-3.93-3.56 0-6.32 1.31-8.29 3.93-1.97 2.62-2.96 6.52-2.96 11.69 0 5.24.98 9.15 2.96 11.74 1.97 2.59 4.74 3.88 8.29 3.88 3.55 0 6.32-1.29 8.29-3.88zM192.06 20.85c4.04 2.2 7.15 5.32 9.31 9.36 2.17 4.04 3.25 8.81 3.25 14.31 0 8.34-2.39 14.92-7.18 19.74-4.79 4.82-11.38 7.23-19.79 7.23-8.41 0-15-2.41-19.79-7.23-4.79-4.82-7.18-11.4-7.18-19.74s2.39-14.92 7.18-19.74c4.78-4.82 11.38-7.23 19.79-7.23 5.57.01 10.37 1.11 14.41 3.3zm-6.11 35.41c1.97-2.59 2.96-6.5 2.96-11.74 0-5.17-.99-9.07-2.96-11.69-1.97-2.62-4.74-3.93-8.29-3.93-3.56 0-6.32 1.31-8.29 3.93-1.97 2.62-2.96 6.52-2.96 11.69 0 5.24.98 9.15 2.96 11.74 1.97 2.59 4.74 3.88 8.29 3.88 3.55 0 6.32-1.29 8.29-3.88zM228.58 0v70.23h-15.42V0h15.42zM255.55 70.23h-15.42V0h15.42v38.41l17.46-19.59h17.27l-18.82 19.79 20.95 31.62h-17.75l-13.48-21.34-5.62 5.92v15.42zM313.65 0v12.03h-15.42V0h15.42zm0 18.82v51.41h-15.42V18.82h15.42zM354 58.78v11.45c-.97.32-2.38.61-4.22.87-1.84.26-3.7.39-5.58.39-3.82 0-6.85-.4-9.12-1.21-2.26-.81-3.95-2.2-5.04-4.17-1.1-1.97-1.65-4.74-1.65-8.29v-29h-7.95v-9.99h7.95V4.56h15.42v14.26h10.48v9.99h-10.48v25.71c0 1.88.4 3.15 1.21 3.83.81.68 2.15 1.02 4.03 1.02 2.01-.01 3.65-.2 4.95-.59z"/>
  <path d="M41.13 35.07V20.23h1.75v50.83c0 6.27-1.83 11.02-5.48 14.26-3.65 3.23-8.81 4.85-15.47 4.85-6.14 0-10.77-1.26-13.87-3.78-3.1-2.52-5.01-5.33-5.72-8.44h1.75c.71 2.65 2.46 5.08 5.24 7.28 2.78 2.2 6.98 3.3 12.61 3.3 6.21 0 10.96-1.46 14.26-4.37s4.95-7.24 4.95-13V55.24c-1.23 4.85-3.61 8.76-7.13 11.74-3.53 2.97-7.75 4.46-12.66 4.46-6.66 0-11.87-2.46-15.62-7.37C1.91 59.15 0 52.75 0 44.86c0-7.76 1.91-14.03 5.72-18.82 3.75-4.66 8.89-6.98 15.42-6.98 5.04 0 9.34 1.49 12.9 4.46 3.56 2.98 5.92 6.83 7.09 11.55zM21.34 69.79c6.01 0 10.8-2.26 14.36-6.79 3.62-4.53 5.43-10.44 5.43-17.75 0-7.57-1.81-13.55-5.43-17.94-3.62-4.4-8.44-6.6-14.45-6.6s-10.77 2.17-14.26 6.5-5.24 10.22-5.24 17.65c0 7.5 1.75 13.52 5.24 18.04 3.49 4.6 8.27 6.89 14.35 6.89z"/>
</svg>